<?xml version="1.0" standalone="no"?>
<!DOCTYPE svg PUBLIC "-//W3C//DTD SVG 20010904//EN"
 "http://www.w3.org/TR/2001/REC-SVG-20010904/DTD/svg10.dtd">
<svg version="1.0" xmlns="http://www.w3.org/2000/svg"
 width="154.000000pt" height="98.000000pt" viewBox="0 0 154.000000 98.000000"
 preserveAspectRatio="xMidYMid meet">
<metadata>
Created by potrace 1.16, written by Peter Selinger 2001-2019
</metadata>
<g transform="translate(0.000000,98.000000) scale(0.100000,-0.100000)"
fill="#000000" stroke="none">
<path d="M765 870 c-4 -21 -3 -45 1 -51 5 -9 2 -10 -10 -6 -16 6 -17 3 -12
-19 5 -18 3 -24 -5 -18 -9 5 -11 -3 -6 -30 4 -25 2 -34 -5 -30 -8 5 -9 -3 -5
-25 5 -22 3 -30 -5 -25 -8 5 -9 -4 -4 -31 5 -25 4 -35 -3 -30 -8 4 -8 -2 -1
-21 8 -19 8 -29 0 -34 -7 -5 -8 -15 -1 -33 7 -19 7 -27 0 -27 -6 0 -8 -4 -4
-9 3 -5 7 -22 9 -38 2 -15 7 -37 12 -47 5 -14 4 -17 -4 -12 -16 10 -15 1 3
-34 10 -19 11 -30 5 -30 -6 0 -8 -5 -5 -10 4 -6 8 -25 11 -43 4 -36 9 -66 19
-118 8 -46 -9 -62 -51 -49 -28 10 -28 10 6 5 l35 -4 -44 39 c-25 21 -48 37
-52 34 -4 -2 -9 3 -13 11 -3 8 -12 15 -21 15 -8 0 -15 5 -15 10 0 6 -5 10 -12
10 -6 0 -26 11 -45 26 -18 14 -33 22 -33 18 0 -4 -9 1 -20 11 -11 10 -20 15
-20 10 0 -4 -7 -2 -15 5 -8 7 -15 9 -15 5 0 -4 -7 -1 -17 6 -9 8 -26 14 -37
14 -12 1 -27 4 -34 9 -7 4 -23 9 -35 11 -12 2 -39 8 -59 13 -47 12 -41 0 19
-38 24 -15 38 -30 31 -32 -7 -3 2 -11 20 -19 18 -8 30 -19 27 -26 -3 -9 5 -13
21 -13 19 0 25 -4 20 -15 -4 -11 2 -15 20 -15 14 0 22 -4 19 -10 -4 -6 5 -10
20 -10 14 0 24 -4 21 -9 -3 -5 11 -12 32 -16 20 -4 43 -11 49 -17 7 -6 19 -8
27 -5 8 3 17 0 20 -8 3 -9 0 -12 -10 -8 -7 3 -14 0 -14 -6 0 -6 -3 -10 -7 -9
-5 0 -19 -4 -33 -10 -20 -9 -4 -11 83 -11 61 -1 117 4 129 10 14 8 23 8 31 0
7 -7 53 -10 121 -10 61 1 101 4 89 6 -13 2 -23 9 -23 14 0 6 -18 9 -42 8 -26
-2 -43 1 -46 9 -4 12 21 17 62 12 12 -1 16 3 11 10 -6 9 3 10 35 5 30 -5 41
-4 36 4 -5 7 2 11 19 11 15 0 24 4 20 10 -4 6 5 10 19 10 14 0 26 5 26 10 0 6
9 10 21 10 14 0 19 5 16 14 -4 10 2 16 16 18 12 2 20 7 17 11 -3 5 8 15 23 23
15 8 25 19 23 23 -3 4 6 13 20 20 14 6 22 16 19 21 -3 6 -1 10 5 10 7 0 23 9
37 20 25 19 25 20 4 20 -12 0 -38 -7 -59 -15 -25 -11 -38 -13 -40 -5 -3 7 -11
5 -23 -6 -11 -9 -22 -14 -26 -11 -3 4 -15 0 -25 -10 -10 -9 -18 -13 -18 -8 0
4 -7 1 -16 -6 -9 -7 -26 -14 -37 -16 -12 -2 -27 -10 -33 -18 -6 -8 -13 -12
-16 -10 -3 3 -11 -1 -18 -10 -7 -8 -18 -15 -25 -15 -7 0 -16 -7 -19 -16 -3 -8
-10 -13 -15 -9 -6 3 -14 -2 -19 -10 -4 -9 -35 -34 -68 -56 l-59 -39 35 -1 c31
-2 32 -2 7 -6 -29 -5 -58 11 -56 31 0 6 3 6 6 -2 6 -16 44 6 85 49 15 16 31
29 37 29 5 0 14 6 18 14 4 7 19 19 32 26 17 8 20 14 11 20 -8 5 -2 10 16 14
19 5 24 10 15 15 -9 6 -5 13 15 26 18 11 23 20 15 24 -7 5 -3 12 14 19 25 12
34 32 14 32 -7 0 1 10 15 21 20 15 24 24 15 29 -8 6 -5 11 10 19 12 7 20 18
19 26 -2 8 6 21 17 29 15 11 16 15 5 16 -10 0 -7 5 8 16 13 9 21 21 19 27 -2
7 2 20 11 30 12 13 12 17 2 17 -9 0 -7 7 7 23 19 21 37 57 28 57 -2 0 -20 -14
-39 -31 -20 -17 -40 -28 -45 -24 -6 3 -15 -4 -21 -15 -6 -12 -17 -19 -25 -17
-7 3 -18 -6 -25 -21 -7 -16 -14 -22 -17 -14 -6 17 -23 5 -23 -17 0 -12 -7 -18
-17 -17 -12 1 -20 -9 -24 -29 -4 -16 -7 -23 -8 -15 -1 13 -3 13 -10 1 -5 -8
-7 -20 -4 -28 3 -8 0 -13 -8 -11 -8 2 -17 -14 -24 -45 -5 -27 -14 -45 -18 -41
-4 4 -7 -5 -7 -21 0 -16 -3 -26 -6 -22 -7 7 -44 -60 -44 -80 0 -7 -4 -13 -10
-13 -5 0 -10 -6 -10 -13 0 -15 -39 -97 -40 -84 0 4 7 24 15 44 8 20 13 38 10
41 -3 3 0 11 6 18 6 8 9 20 6 27 -3 7 1 24 9 38 16 29 18 42 4 34 -5 -3 -10
-2 -10 4 0 5 4 12 10 16 5 3 9 18 8 33 0 15 3 38 7 51 6 17 5 22 -3 17 -6 -4
-5 5 3 21 8 15 11 30 6 33 -9 6 -7 72 3 88 4 7 3 12 -3 12 -6 0 -8 12 -4 32 5
23 3 29 -6 23 -10 -6 -11 -3 -2 13 15 28 14 45 -2 39 -10 -4 -12 3 -9 25 3 22
1 29 -7 24 -9 -6 -10 0 -5 20 6 22 4 26 -8 21 -11 -4 -14 -1 -11 12 5 20 -13
71 -26 71 -5 0 -12 -18 -16 -40z"/>
<path d="M327 683 c4 -9 14 -33 24 -52 11 -23 13 -38 7 -42 -6 -4 0 -14 13
-23 19 -13 21 -18 10 -25 -10 -7 -8 -12 10 -25 15 -10 18 -16 9 -16 -9 -1 -4
-9 14 -24 20 -17 24 -25 15 -29 -10 -4 -8 -9 9 -22 12 -9 20 -21 16 -26 -3 -6
3 -13 15 -16 12 -3 21 -9 21 -14 0 -9 30 -39 99 -101 17 -15 31 -32 31 -38 0
-5 4 -10 10 -10 5 0 34 -26 65 -57 30 -32 55 -52 55 -44 0 26 -32 131 -39 127
-4 -3 -8 5 -8 17 -1 12 -7 23 -13 25 -5 2 -10 15 -10 28 0 14 -4 23 -9 19 -5
-3 -11 5 -13 17 -2 13 -9 22 -16 20 -6 -1 -12 5 -12 13 0 9 -11 26 -25 39 -14
13 -25 31 -25 40 0 9 -4 16 -9 16 -5 0 -11 9 -14 21 -3 12 -10 18 -15 15 -6
-3 -13 6 -16 20 -5 17 -12 24 -21 20 -9 -3 -15 0 -15 8 0 19 -30 43 -30 25 -1
-8 -6 -4 -13 9 -7 12 -16 20 -19 16 -4 -3 -11 4 -18 15 -6 12 -17 21 -24 21
-8 0 -16 6 -19 14 -3 8 -15 20 -26 26 -18 9 -20 8 -14 -7z"/>
</g>
</svg>
